<svg xmlns="http://www.w3.org/2000/svg" width="256" height="256"><path fill="#1976D2" fill-opacity=".016" fill-rule="evenodd" d="M0 128.004v128.004l128.25-.254 128.25-.254.254-127.75L257.008 0H0v128.004m.485.496c0 70.4.119 99.053.265 63.672.146-35.38.146-92.98 0-128C.604 29.153.485 58.1.485 128.5"/><path fill="#1976D2" fill-opacity=".147" fill-rule="evenodd" d="M135.566 67.602c-10.47 2.532-19.941 7.835-28.163 15.77l-7.526 7.262-6.689-1.403c-7.747-1.625-16.903-1.026-24.734 1.617C62.857 92.738 52 98.916 52 100.211c0 .434 11.195.789 24.878.789 20.796 0 25.08.244 26.111 1.487 1.76 2.12.45 6.162-2.228 6.88-1.244.333-20.768.612-43.389.619-44.325.015-43.946-.03-43.199 5.184.54 3.766 4.29 4.941 14.172 4.44 8.696-.441 8.835-.411 8.212 1.721-.349 1.193-.9 3.624-1.224 5.402l-.589 3.234 26.769.266c24.235.242 26.875.433 27.873 2.017.805 1.276.805 2.224.001 3.5-1.015 1.609-4.54 1.79-43.711 2.25-38.693.454-42.766.659-44.34 2.234-1.372 1.373-1.531 2.311-.762 4.5l.971 2.766 16.321.5 16.322.5 1.656 5 1.656 5 29-.34c31.182-.366 34.5.03 34.5 4.115 0 4.738.122 4.725-44.545 4.725-39.559 0-42.247.112-43.8 1.829-2.078 2.296-2.107 4.576-.084 6.6 1.315 1.314 4.571 1.571 19.9 1.571h18.328l5.086 3.423c2.798 1.882 7.681 4.47 10.851 5.75L72.5 188.5h154l6.503-3.082c12.016-5.695 21.191-18.03 22.453-30.189 1.289-12.413 1.437-15.805.578-13.229l-.835 2.5-.099-2.616c-.179-4.687-6.895-16.53-11.898-20.981-5.306-4.72-12.964-8.59-19.378-9.793l-4.324-.811-23.252 23.095-23.252 23.094-16.744-16.744L139.507 123h14.957l9.532 9.496 9.533 9.497 17.361-17.383 17.361-17.382-2.485-5.364c-12.196-26.325-42.289-41.013-70.2-34.262M110.2 102.2c-1.855 1.855-1.425 4.529 1.004 6.23 1.877 1.315 2.506 1.343 4.25.187 2.497-1.655 3.123-4.217 1.506-6.165-1.461-1.761-5.115-1.897-6.76-.252m-14.168 29.74c-1.646 3.076.359 6.269 3.684 5.87 5.533-.664 5.533-6.956 0-7.62-1.79-.215-2.92.322-3.684 1.75M.158 143c0 1.375.227 1.938.504 1.25.278-.687.278-1.812 0-2.5-.277-.687-.504-.125-.504 1.25m109.081 15.75c-.694.233-1.723 1.285-2.286 2.337-2.299 4.297 3.905 8.199 7.036 4.426 2.609-3.144-.854-8.074-4.75-6.763"/><path fill="#1976D2" fill-opacity=".514" fill-rule="evenodd" d="M141.381 66.953c-13.621 2.12-26.48 8.807-36.013 18.728l-5.286 5.502-5.09-1.091C82.486 87.41 69.159 89.625 58 96.24l-5.5 3.26 25 .544c13.75.299 25.097.637 25.215.75 1.911 1.832 2.252 4.607.833 6.773L101.954 110H59.548c-37.217 0-42.597.192-43.977 1.571-1.994 1.995-1.994 3.863 0 5.858 1.228 1.227 3.851 1.571 11.976 1.571 10.368 0 10.401.008 9.575 2.25-.456 1.237-1.129 3.487-1.495 5l-.665 2.75h52.992l1.638 2.5c1.517 2.316 1.517 2.684 0 5l-1.638 2.5-42.227.015c-23.225.009-42.71.346-43.3.75-1.954 1.338-2.297 3.976-.795 6.12C3.034 147.886 3.962 148 18.881 148h15.768l1.475 4.75 1.474 4.75 30.389.265c26.519.231 30.619.474 32.201 1.905 2.182 1.975 2.272 3.318.393 5.889-1.356 1.856-3.32 1.963-44.75 2.441l-43.331.5-.336 2.951c-.578 5.081 1.208 5.549 21.174 5.549h17.955l5.103 3.358c2.807 1.847 7.804 4.434 11.104 5.75l6 2.392 73.331.287c64.041.251 74.109.088 79.467-1.285 23.808-6.099 35.919-32.847 24.984-55.178-4.975-10.161-17.653-19.499-28.363-20.89l-4.419-.574-22.991 23.069-22.99 23.068-16.76-16.737C146.542 131.054 139 123.18 139 122.761c0-.419 3.547-.761 7.882-.761h7.882l9.116 9.536c7.535 7.882 9.421 9.368 10.868 8.565.964-.535 8.855-8.109 17.537-16.833l15.785-15.86-3.645-7.284c-4.233-8.463-13.064-18.363-21.193-23.758-11.171-7.415-28.969-11.418-41.851-9.413M110.75 101.08c-2.01 1.171-2.349 5.921-.55 7.72.66.66 2.145 1.2 3.3 1.2 1.155 0 2.64-.54 3.3-1.2 1.901-1.901 1.458-6.592-.734-7.765-2.364-1.265-3.078-1.259-5.316.045m-14 29c-2.425 1.412-2.305 6.553.184 7.885 3.054 1.634 4.892 1.229 6.658-1.465 1.517-2.316 1.517-2.684 0-5-1.731-2.642-3.953-3.103-6.842-1.42m11 29c-3.989 2.323-.262 9.852 4.179 8.442 3.335-1.058 4.501-4.216 2.619-7.089-1.69-2.58-3.927-3.025-6.798-1.353"/><path fill="#1976D2" fill-opacity=".25" fill-rule="evenodd" d="M157.871 67.462c-.454.454-5.289 1.313-8.371 1.486-1.203.068.607 1.395 4.544 3.332 6.427 3.162 12.846 7.654 18.12 12.681 6.814 6.495 15.266 23.344 16.385 32.662.319 2.662.682 4.941.806 5.065.292.293 7.896-6.048 13.634-11.369l4.508-4.182-3.118-6.318c-4.253-8.621-11.206-16.881-18.729-22.249-5.173-3.691-14.11-8.413-16.163-8.54a4.003 4.003 0 0 1-.737-.107c-.959-.293-4.603-1.04-6.346-1.301-1.152-.172-2.552-.595-3.11-.94-.558-.345-1.198-.444-1.423-.22M67.986 92.414c-.542.542-.986.665-.986.272 0-.986-11.683 4.992-12.574 6.434-.538.871 1.394.985 7.677.454 11.325-.957 12.434-1.306 13.989-4.401a197.55 197.55 0 0 1 1.638-3.209c.538-.981-8.742-.552-9.744.45m-51.769 18.769c-1.557 1.557-1.566 5.068-.017 6.617.778.778 4.822 1.2 11.5 1.2 5.665 0 10.295.112 10.289.25-.006.138-.659 2.388-1.452 5L35.096 129h11.509c6.33 0 13.509-.503 15.952-1.119 4.886-1.23 4.563-.37 4.842-12.881l.101-4.5-25.033-.267c-18.632-.198-25.345.045-26.25.95m189.973 13.309c-15.324 15.868-19.362 20.725-21.204 25.508-5.052 13.112-15.976 25.166-28.547 31.5-4.366 2.2-8.151 4.137-8.41 4.304-2.121 1.371 6.732 2.046 34.829 2.656 35.664.774 42.087.269 50.798-3.992 20.839-10.196 27.804-37.586 14.426-56.734-5.926-8.483-14.764-14.064-25.678-16.215-2.925-.577-3.822.141-16.214 12.973M2.2 140.2c-1.57 1.57-1.54 5.462.05 6.491.688.445 8.404 1.034 17.147 1.309l15.898.5 1.383 4.75 1.383 4.75h14.82c15.012 0 22.026-1.162 20.272-3.359-.501-.628-1.904-3.894-3.118-7.258-1.998-5.54-2.563-6.225-5.987-7.25-5.421-1.625-60.216-1.565-61.848.067m10.894 29.187c-.781.941-1.061 2.609-.687 4.1l.631 2.513 18.731.028 18.731.029 6 3.998c9.651 6.432 16.121 7.948 33.855 7.93 8.33-.009 15.807-.434 16.616-.946 1.758-1.112 1.737-1.131-3.971-3.564-4.619-1.969-12.024-6.765-16.575-10.735-1.413-1.232-3.774-2.636-5.247-3.12-1.473-.484-17.098-1.092-34.722-1.35-28.419-.417-32.194-.291-33.362 1.117"/></svg>